<svg xmlns="http://www.w3.org/2000/svg" width="16" height="16" viewBox="0 0 16 16"><path fill="#232323" fill-rule="nonzero" d="M 8.516 2.222 C 8.073 1.261 7.103 0.592 5.976 0.592 C 5.752 0.592 5.536 0.622 5.328 0.671 C 5.504 0.946 5.608 1.272 5.608 1.623 C 5.608 2.599 4.817 3.39 3.841 3.39 C 3.608 3.39 3.387 3.344 3.184 3.263 C 3.183 3.306 3.178 3.348 3.178 3.39 C 3.178 3.67 3.22 3.939 3.297 4.194 C 3.414 4.586 3.616 4.941 3.88 5.239 C 4.27 4.891 4.784 4.677 5.347 4.677 C 5.506 4.677 5.671 4.696 5.836 4.733 L 6.199 4.815 L 6.429 4.522 C 6.993 3.804 7.838 3.393 8.749 3.393 C 8.757 3.393 8.765 3.393 8.774 3.393 C 8.774 3.393 8.774 3.391 8.774 3.39 C 8.774 2.973 8.68 2.578 8.516 2.222 "/><path fill="#232323" fill-rule="nonzero" d="M 6.799 9.174 L 7.109 9.381 C 7.595 9.707 8.162 9.879 8.749 9.879 C 9.477 9.879 10.176 9.612 10.718 9.125 L 10.92 8.944 L 11.189 8.979 C 11.267 8.99 11.329 8.995 11.386 8.995 C 12.199 8.995 12.861 8.333 12.861 7.52 C 12.861 6.873 12.447 6.308 11.83 6.113 L 11.571 6.032 L 11.466 5.782 C 11.002 4.688 9.937 3.982 8.749 3.982 C 7.839 3.982 6.993 4.394 6.429 5.111 L 6.199 5.404 L 5.836 5.322 C 5.671 5.285 5.506 5.266 5.347 5.266 C 4.13 5.266 3.14 6.256 3.14 7.473 C 3.14 8.691 4.13 9.681 5.347 9.681 C 5.744 9.681 6.135 9.572 6.479 9.365 Z M 8.749 11.056 C 8.048 11.056 7.368 10.881 6.761 10.546 C 6.318 10.751 5.835 10.858 5.347 10.858 C 3.481 10.858 1.963 9.339 1.963 7.473 C 1.963 5.607 3.481 4.089 5.347 4.089 C 5.476 4.089 5.606 4.096 5.736 4.112 C 6.516 3.277 7.595 2.804 8.749 2.804 C 10.323 2.804 11.745 3.692 12.441 5.086 C 13.406 5.502 14.038 6.449 14.038 7.52 C 14.038 8.982 12.848 10.172 11.386 10.172 C 11.359 10.172 11.33 10.171 11.303 10.171 C 10.576 10.744 9.679 11.056 8.749 11.056 "/><path fill="#232323" fill-rule="nonzero" d="M 10.375 14.819 C 10.375 15.144 10.639 15.408 10.965 15.408 C 11.29 15.408 11.554 15.144 11.554 14.819 C 11.554 14.494 11.29 14.23 10.965 14.23 C 10.639 14.23 10.375 14.494 10.375 14.819 "/><path fill="#232323" fill-rule="nonzero" d="M 7.43 13.641 C 7.43 13.966 7.694 14.23 8.019 14.23 C 8.344 14.23 8.608 13.966 8.608 13.641 C 8.608 13.316 8.344 13.051 8.019 13.051 C 7.694 13.051 7.43 13.316 7.43 13.641 "/><path fill="#232323" fill-rule="nonzero" d="M 12.143 13.641 C 12.143 13.966 12.406 14.23 12.732 14.23 C 13.057 14.23 13.321 13.966 13.321 13.641 C 13.321 13.316 13.057 13.051 12.732 13.051 C 12.406 13.051 12.143 13.316 12.143 13.641 "/><path fill="#232323" fill-rule="nonzero" d="M 10.445 15.098 L 8.089 10.707 L 9.127 10.15 L 11.483 14.54 Z M 10.445 15.098 "/><path fill="#232323" fill-rule="nonzero" d="M 12.212 13.92 L 10.263 10.288 L 11.301 9.731 L 13.251 13.362 Z M 12.212 13.92 "/><path fill="#232323" fill-rule="nonzero" d="M 7.5 13.92 L 5.551 10.288 L 6.589 9.731 L 8.538 13.362 Z M 7.5 13.92 "/></svg>